<svg width="24" height="25" viewBox="0 0 24 25" fill="none" xmlns="http://www.w3.org/2000/svg">
<path fill-rule="evenodd" clip-rule="evenodd" d="M12.3169 1.68925L11.8975 2.28845L11.478 1.68925C11.7299 1.51297 12.0651 1.51297 12.3169 1.68925ZM11.8975 3.20271C11.7192 3.34178 11.4914 3.52492 11.2283 3.74857C10.563 4.3141 9.67673 5.1341 8.79234 6.15116C7.00568 8.20581 5.31477 10.963 5.31477 13.991C5.31477 15.7369 6.0083 17.4112 7.24279 18.6457C8.47729 19.8802 10.1516 20.5737 11.8975 20.5737C13.6433 20.5737 15.3176 19.8802 16.5521 18.6457C17.7866 17.4112 18.4802 15.7369 18.4802 13.991C18.4802 10.963 16.7892 8.20581 15.0026 6.15116C14.1182 5.1341 13.2319 4.3141 12.5666 3.74857C12.3035 3.52492 12.0757 3.34178 11.8975 3.20271ZM11.4776 1.68956C11.4778 1.6894 11.478 1.68925 11.8975 2.28845C12.3169 1.68925 12.3171 1.6894 12.3173 1.68956L12.3179 1.68998L12.3197 1.69119L12.3251 1.695L12.3437 1.70823C12.3595 1.71952 12.382 1.73575 12.4108 1.7568C12.4685 1.7989 12.5514 1.86033 12.6559 1.94018C12.8648 2.09983 13.1604 2.33348 13.514 2.63399C14.2201 3.23415 15.1623 4.10553 16.1064 5.19128C17.9768 7.34224 19.943 10.4363 19.943 13.991C19.943 16.1248 19.0953 18.1712 17.5865 19.6801C16.0777 21.1889 14.0313 22.0365 11.8975 22.0365C9.76366 22.0365 7.71725 21.1889 6.20842 19.6801C4.6996 18.1712 3.85195 16.1248 3.85195 13.991C3.85195 10.4363 5.81809 7.34224 7.68848 5.19128C8.63261 4.10553 9.57487 3.23415 10.2809 2.63399C10.6345 2.33348 10.9302 2.09983 11.139 1.94018C11.2435 1.86033 11.3264 1.7989 11.3841 1.7568C11.4129 1.73575 11.4355 1.71952 11.4513 1.70823L11.4699 1.695L11.4753 1.69119L11.477 1.68998L11.4776 1.68956Z" fill="#9CA3AF"/>
<path fill-rule="evenodd" clip-rule="evenodd" d="M16.346 14.0108C16.7441 14.0793 17.0113 14.4576 16.9427 14.8556C16.7632 15.8984 16.2645 16.8598 15.5153 17.607C14.7661 18.3543 13.8035 18.8506 12.7603 19.0274C12.362 19.095 11.9844 18.8268 11.9169 18.4286C11.8494 18.0303 12.1175 17.6527 12.5158 17.5852C13.2604 17.459 13.9475 17.1047 14.4823 16.5714C15.017 16.038 15.373 15.3518 15.5011 14.6075C15.5696 14.2094 15.9479 13.9422 16.346 14.0108Z" fill="#9CA3AF"/>
</svg>
