<svg width="31" height="31" viewBox="0 0 31 31" fill="none" xmlns="http://www.w3.org/2000/svg">
<path fill-rule="evenodd" clip-rule="evenodd" d="M18.6198 18.6381C19.3052 18.6376 19.9776 18.825 20.564 19.1799C21.1505 19.5348 21.6284 20.0437 21.9459 20.6512C22.2635 21.2587 22.4084 21.9417 22.3649 22.6258C22.3215 23.31 22.0913 23.9691 21.6995 24.5316C21.3077 25.0941 20.7691 25.5384 20.1425 25.8162C19.5158 26.0941 18.825 26.1949 18.145 26.1076C17.4651 26.0203 16.8221 25.7484 16.2859 25.3212C15.7498 24.8941 15.3409 24.3282 15.1038 23.685C14.9248 23.1992 15.1735 22.6602 15.6593 22.4811C16.1451 22.3021 16.6841 22.5507 16.8631 23.0366C16.9817 23.3582 17.1861 23.6411 17.4542 23.8547C17.7223 24.0682 18.0438 24.2042 18.3837 24.2479C18.7237 24.2915 19.0691 24.2411 19.3825 24.1022C19.6958 23.9632 19.9651 23.7411 20.161 23.4598C20.3569 23.1786 20.472 22.849 20.4937 22.507C20.5154 22.1649 20.4429 21.8234 20.2842 21.5197C20.1254 21.2159 19.8865 20.9615 19.5932 20.784C19.3 20.6065 18.9637 20.5129 18.621 20.5131L5.49521 20.5131C4.97744 20.5131 4.55771 20.0934 4.55771 19.5756C4.55771 19.0579 4.97744 18.6381 5.49521 18.6381H18.6198Z" fill="#9CA3AF"/>
<path fill-rule="evenodd" clip-rule="evenodd" d="M15.6325 7.54906C15.3191 7.41013 14.9737 7.35975 14.6337 7.40338C14.2938 7.44702 13.9723 7.583 13.7042 7.79656C13.4361 8.01012 13.2317 8.29308 13.1131 8.61469C12.9341 9.10051 12.3951 9.34918 11.9093 9.17012C11.4235 8.99106 11.1748 8.45207 11.3538 7.96625C11.5909 7.32304 11.9998 6.75712 12.5359 6.33C13.0721 5.90288 13.7151 5.63091 14.395 5.54364C15.075 5.45637 15.7658 5.55714 16.3925 5.835C17.0191 6.11287 17.5577 6.55719 17.9495 7.11968C18.3413 7.68217 18.5715 8.3413 18.6149 9.02542C18.6584 9.70955 18.5135 10.3925 18.1959 11C17.8784 11.6076 17.4005 12.1165 16.814 12.4714C16.2277 12.8262 15.5555 13.0135 14.8702 13.0131H3.62021C3.10244 13.0131 2.68271 12.5934 2.68271 12.0756C2.68271 11.5579 3.10244 11.1381 3.62021 11.1381H14.8702C15.213 11.1384 15.55 11.0447 15.8432 10.8673C16.1365 10.6898 16.3754 10.4354 16.5342 10.1316C16.693 9.82781 16.7654 9.48634 16.7437 9.14427C16.722 8.80221 16.6069 8.47265 16.411 8.1914C16.2151 7.91016 15.9458 7.688 15.6325 7.54906Z" fill="#9CA3AF"/>
<path fill-rule="evenodd" clip-rule="evenodd" d="M25.945 11.2991C25.6316 11.1601 25.2862 11.1097 24.9462 11.1534C24.6063 11.197 24.2848 11.333 24.0167 11.5466C23.7486 11.7601 23.5442 12.0431 23.4256 12.3647C23.2466 12.8505 22.7076 13.0992 22.2218 12.9201C21.736 12.7411 21.4873 12.2021 21.6663 11.7162C21.9034 11.073 22.3123 10.5071 22.8484 10.08C23.3846 9.65288 24.0276 9.38091 24.7075 9.29364C25.3875 9.20637 26.0783 9.30714 26.705 9.585C27.3316 9.86287 27.8702 10.3072 28.262 10.8697C28.6538 11.4322 28.884 12.0913 28.9274 12.7754C28.9709 13.4596 28.8259 14.1425 28.5084 14.75C28.1909 15.3576 27.713 15.8665 27.1265 16.2214C26.5402 16.5762 25.8679 16.7636 25.1826 16.7631C25.1824 16.7631 25.1828 16.7631 25.1826 16.7631H4.55771C4.03994 16.7631 3.62021 16.3434 3.62021 15.8256C3.62021 15.3079 4.03994 14.8881 4.55771 14.8881H25.1827C25.5255 14.8884 25.8625 14.7947 26.1557 14.6173C26.449 14.4398 26.6879 14.1854 26.8467 13.8816C27.0054 13.5778 27.0779 13.2363 27.0562 12.8943C27.0344 12.5522 26.9194 12.2226 26.7235 11.9414C26.5276 11.6602 26.2583 11.438 25.945 11.2991Z" fill="#9CA3AF"/>
</svg>
